<svg xmlns="http://www.w3.org/2000/svg" width="192" height="60" viewBox="0 0 192 60">
  <g fill="none" fill-rule="evenodd">
    <rect width="192" height="60" fill="#FFF" rx="6"/>
    <g fill="#000" transform="translate(25 11)">
      <path fill-rule="nonzero" d="M38.1616211 32L39.7729492 27.2392578 46.4868164 27.2392578 48.0981445 32 50.9912109 32 44.6313477 14.3852539 41.6772461 14.3852539 35.3173828 32 38.1616211 32zM45.7910156 25.0419922L40.46875 25.0419922 43.0932617 17.3149414 43.1665039 17.3149414 45.7910156 25.0419922zM55.2514648 36.2480469L55.2514648 29.8881836 55.3125 29.8881836C56.0449219 31.3164062 57.5097656 32.2197266 59.3530273 32.2197266 62.5756836 32.2197266 64.7119141 29.644043 64.7119141 25.5791016 64.7119141 21.5141602 62.5634766 18.9506836 59.3041992 18.9506836 57.4487305 18.9506836 55.9716797 19.890625 55.2148438 21.3676758L55.1660156 21.3676758 55.1660156 19.1582031 52.6147461 19.1582031 52.6147461 36.2480469 55.2514648 36.2480469zM58.6083984 29.9858398C56.5820312 29.9858398 55.2392578 28.2524414 55.2392578 25.5791016 55.2392578 22.9301758 56.5942383 21.1723633 58.6083984 21.1723633 60.6958008 21.1723633 62.0019531 22.8935547 62.0019531 25.5791016 62.0019531 28.2768555 60.6958008 29.9858398 58.6083984 29.9858398zM69.375 36.2480469L69.375 29.8881836 69.4360352 29.8881836C70.168457 31.3164062 71.6333008 32.2197266 73.4765625 32.2197266 76.6992188 32.2197266 78.8354492 29.644043 78.8354492 25.5791016 78.8354492 21.5141602 76.6870117 18.9506836 73.4277344 18.9506836 71.5722656 18.9506836 70.0952148 19.890625 69.3383789 21.3676758L69.2895508 21.3676758 69.2895508 19.1582031 66.7382812 19.1582031 66.7382812 36.2480469 69.375 36.2480469zM72.7319336 29.9858398C70.7055664 29.9858398 69.362793 28.2524414 69.362793 25.5791016 69.362793 22.9301758 70.7177734 21.1723633 72.7319336 21.1723633 74.8193359 21.1723633 76.1254883 22.8935547 76.1254883 25.5791016 76.1254883 28.2768555 74.8193359 29.9858398 72.7319336 29.9858398zM92.1777344 32.2929688C96.3525391 32.2929688 98.9770508 30.2299805 98.9770508 26.934082 98.9770508 24.3583984 97.4755859 22.9057617 93.8623047 22.0512695L91.9213867 21.5751953C89.6508789 21.0136719 88.7231445 20.28125 88.7231445 19.0361328 88.7231445 17.4736328 90.1757812 16.3994141 92.2998047 16.3994141 94.4238281 16.3994141 95.8764648 17.4614258 96.0351562 19.2192383L98.6962891 19.2192383C98.6108398 16.1796875 96.0595703 14.0922852 92.3364258 14.0922852 88.5766602 14.0922852 85.9277344 16.1796875 85.9277344 19.2192383 85.9277344 21.6728516 87.4291992 23.1865234 90.6640625 23.9677734L92.9467773 24.5170898C95.2294922 25.0786133 96.1938477 25.8964844 96.1938477 27.2636719 96.1938477 28.8383789 94.5947266 29.9858398 92.3730469 29.9858398 90.0537109 29.9858398 88.3569336 28.8383789 88.1616211 27.0927734L85.4638672 27.0927734C85.6347656 30.2788086 88.2714844 32.2929688 92.1777344 32.2929688zM105.495605 32.0854492C106.081543 32.0854492 106.66748 32.0366211 106.960449 31.9633789L106.960449 29.8759766C106.789551 29.9125977 106.362305 29.9370117 106.09375 29.9370117 105.019531 29.9370117 104.53125 29.4365234 104.53125 28.3256836L104.53125 21.2456055 106.972656 21.2456055 106.972656 19.1582031 104.53125 19.1582031 104.53125 16.1186523 101.882324 16.1186523 101.882324 19.1582031 100.014648 19.1582031 100.014648 21.2456055 101.882324 21.2456055 101.882324 28.6186523C101.882324 31.0966797 102.895508 32.0854492 105.495605 32.0854492zM114.650879 32.2441406C118.325195 32.2441406 120.742188 29.7172852 120.742188 25.5791016 120.742188 21.453125 118.312988 18.9262695 114.650879 18.9262695 110.98877 18.9262695 108.55957 21.453125 108.55957 25.5791016 108.55957 29.7172852 110.976562 32.2441406 114.650879 32.2441406zM114.650879 30.0712891C112.587891 30.0712891 111.245117 28.4355469 111.245117 25.5791016 111.245117 22.7348633 112.587891 21.0991211 114.650879 21.0991211 116.713867 21.0991211 118.056641 22.7348633 118.056641 25.5791016 118.056641 28.4355469 116.726074 30.0712891 114.650879 30.0712891zM125.41748 32L125.41748 24.3095703C125.41748 22.4907227 126.467285 21.3554688 128.164062 21.3554688 128.676758 21.3554688 129.140625 21.4165039 129.348145 21.5019531L129.348145 19.0483398C129.152832 19.0117188 128.823242 18.9506836 128.444824 18.9506836 126.931152 18.9506836 125.783691 19.8417969 125.356445 21.3432617L125.29541 21.3432617 125.29541 19.1582031 122.780762 19.1582031 122.780762 32 125.41748 32zM136.464844 32.2441406C139.406738 32.2441406 141.628418 30.5717773 141.994629 28.2280273L139.492188 28.2280273C139.138184 29.3510742 138.027344 30.1079102 136.525879 30.1079102 134.414062 30.1079102 133.071289 28.6308594 133.071289 26.3969727L133.071289 26.2382812 142.141113 26.2382812 142.141113 25.3349609C142.141113 21.440918 139.919434 18.9262695 136.35498 18.9262695 132.729492 18.9262695 130.410156 21.6118164 130.410156 25.6401367 130.410156 29.6928711 132.692871 32.2441406 136.464844 32.2441406zM139.504395 24.3950195L133.083496 24.3950195C133.217773 22.4541016 134.511719 21.050293 136.35498 21.050293 138.198242 21.050293 139.443359 22.4296875 139.504395 24.3950195zM40.6621094 11C43.1757812 11 44.6523438 9.43554688 44.6523438 6.76953125 44.6523438 4.109375 43.1699219 2.54492188 40.6621094 2.54492188L37.8203125 2.54492188 37.8203125 11 40.6621094 11zM40.5917969 10.0507812L38.875 10.0507812 38.875 3.49414062 40.5917969 3.49414062C42.5136719 3.49414062 43.5742188 4.66601562 43.5742188 6.78125 43.5742188 8.87890625 42.5078125 10.0507812 40.5917969 10.0507812zM49.6976009 11.1054688C51.3792415 11.1054688 52.5159602 9.89257812 52.5159602 7.953125 52.5159602 6.0078125 51.3792415 4.80078125 49.6976009 4.80078125 48.0101009 4.80078125 46.8733821 6.0078125 46.8733821 7.953125 46.8733821 9.89257812 48.0101009 11.1054688 49.6976009 11.1054688zM49.6976009 10.2089844C48.6194759 10.2089844 47.9104915 9.38867188 47.9104915 7.953125 47.9104915 6.51757812 48.6194759 5.69726562 49.6976009 5.69726562 50.7757259 5.69726562 51.4788509 6.51757812 51.4788509 7.953125 51.4788509 9.38867188 50.7757259 10.2089844 49.6976009 10.2089844zM57.1569205 11L58.5280142 6.28320312 58.5514517 6.28320312 59.9284049 11 60.9655142 11 62.664733 4.90625 61.6569205 4.90625 60.4381705 9.86328125 60.414733 9.86328125 59.0319205 4.90625 58.0475455 4.90625 56.6705924 9.86328125 56.6471549 9.86328125 55.4284049 4.90625 54.414733 4.90625 56.1198111 11 57.1569205 11zM65.8877245 11L65.8877245 7.4140625C65.8877245 6.3828125 66.5146776 5.703125 67.4756151 5.703125 68.4131151 5.703125 68.8760057 6.2421875 68.8760057 7.2265625L68.8760057 11 69.895537 11 69.895537 7.04492188C69.895537 5.66210938 69.1220995 4.80078125 67.786162 4.80078125 66.8428026 4.80078125 66.192412 5.22265625 65.8525682 5.87890625L65.8291307 5.87890625 65.8291307 4.90625 64.8681932 4.90625 64.8681932 11 65.8877245 11zM73.6341535 11L73.6341535 2.54492188 72.6146222 2.54492188 72.6146222 11 73.6341535 11zM78.9079263 11.1054688C80.5895669 11.1054688 81.7262856 9.89257812 81.7262856 7.953125 81.7262856 6.0078125 80.5895669 4.80078125 78.9079263 4.80078125 77.2204263 4.80078125 76.0837075 6.0078125 76.0837075 7.953125 76.0837075 9.89257812 77.2204263 11.1054688 78.9079263 11.1054688zM78.9079263 10.2089844C77.8298013 10.2089844 77.1208169 9.38867188 77.1208169 7.953125 77.1208169 6.51757812 77.8298013 5.69726562 78.9079263 5.69726562 79.9860513 5.69726562 80.6891763 6.51757812 80.6891763 7.953125 80.6891763 9.38867188 79.9860513 10.2089844 78.9079263 10.2089844zM85.9043552 11.1054688C86.7246677 11.1054688 87.4981052 10.6484375 87.8613865 9.95117188L87.884824 9.95117188 87.884824 11 88.8516209 11 88.8516209 6.78710938C88.8516209 5.57421875 87.9492771 4.80078125 86.5195896 4.80078125 85.0781834 4.80078125 84.1758396 5.609375 84.1055271 6.6640625L85.0899021 6.6640625C85.2188084 6.06640625 85.7109959 5.69726562 86.4961521 5.69726562 87.3399021 5.69726562 87.8320896 6.14257812 87.8320896 6.88671875L87.8320896 7.39648438 86.0859959 7.49609375C84.6797459 7.578125 83.8770115 8.234375 83.8770115 9.27734375 83.8770115 10.3730469 84.6914646 11.1054688 85.9043552 11.1054688zM86.1328709 10.2382812C85.400449 10.2382812 84.9141209 9.85742188 84.9141209 9.27734375 84.9141209 8.703125 85.3828709 8.33984375 86.2031834 8.28710938L87.8320896 8.1875 87.8320896 8.68554688C87.8320896 9.56445312 87.0938084 10.2382812 86.1328709 10.2382812zM93.8265655 11.1054688C94.7054717 11.1054688 95.4027374 10.671875 95.7953155 9.96875L95.8128936 9.96875 95.8128936 11 96.7855499 11 96.7855499 2.54492188 95.7660186 2.54492188 95.7660186 5.89648438 95.7425811 5.89648438C95.3792999 5.22851562 94.6761749 4.80078125 93.803128 4.80078125 92.2679717 4.80078125 91.2191436 6.04296875 91.2191436 7.953125 91.2191436 9.86328125 92.2738311 11.1054688 93.8265655 11.1054688zM94.0199249 10.2089844C92.9417999 10.2089844 92.2621124 9.3359375 92.2621124 7.953125 92.2621124 6.57617188 92.9417999 5.69726562 94.0199249 5.69726562 95.068753 5.69726562 95.771878 6.59375 95.771878 7.953125 95.771878 9.31835938 95.068753 10.2089844 94.0199249 10.2089844zM105.891689 11.1054688C107.57333 11.1054688 108.710048 9.89257812 108.710048 7.953125 108.710048 6.0078125 107.57333 4.80078125 105.891689 4.80078125 104.204189 4.80078125 103.06747 6.0078125 103.06747 7.953125 103.06747 9.89257812 104.204189 11.1054688 105.891689 11.1054688zM105.891689 10.2089844C104.813564 10.2089844 104.10458 9.38867188 104.10458 7.953125 104.10458 6.51757812 104.813564 5.69726562 105.891689 5.69726562 106.969814 5.69726562 107.672939 6.51757812 107.672939 7.953125 107.672939 9.38867188 106.969814 10.2089844 105.891689 10.2089844zM112.126399 11L112.126399 7.4140625C112.126399 6.3828125 112.753353 5.703125 113.71429 5.703125 114.65179 5.703125 115.114681 6.2421875 115.114681 7.2265625L115.114681 11 116.134212 11 116.134212 7.04492188C116.134212 5.66210938 115.360774 4.80078125 114.024837 4.80078125 113.081478 4.80078125 112.431087 5.22265625 112.091243 5.87890625L112.067806 5.87890625 112.067806 4.90625 111.106868 4.90625 111.106868 11 112.126399 11zM124.513789 11.046875C124.754023 11.046875 125.035273 11.0292969 125.15832 11L125.15832 10.1445312C125.088007 10.15625 124.853632 10.1738281 124.736445 10.1738281 124.214961 10.1738281 123.980586 9.921875 123.980586 9.36523438L123.980586 5.74414062 125.164179 5.74414062 125.164179 4.90625 123.980586 4.90625 123.980586 3.43554688 122.961054 3.43554688 122.961054 4.90625 122.052851 4.90625 122.052851 5.74414062 122.961054 5.74414062 122.961054 9.41796875C122.961054 10.5898438 123.394648 11.046875 124.513789 11.046875zM128.691858 11L128.691858 7.44921875C128.691858 6.39453125 129.318811 5.703125 130.332483 5.703125 131.287561 5.703125 131.77389 6.28320312 131.77389 7.25L131.77389 11 132.793421 11 132.793421 7.0625C132.793421 5.703125 131.984827 4.80078125 130.64889 4.80078125 129.723108 4.80078125 129.05514 5.19921875 128.715296 5.87890625L128.691858 5.87890625 128.691858 2.54492188 127.672327 2.54492188 127.672327 11 128.691858 11zM137.967584 11.1054688C139.297662 11.1054688 140.328912 10.3203125 140.504694 9.25390625L139.50274 9.25390625C139.332819 9.828125 138.764459 10.2207031 137.991022 10.2207031 136.895319 10.2207031 136.209772 9.453125 136.209772 8.28710938L136.209772 8.22851562 140.580865 8.22851562 140.580865 7.84179688C140.580865 5.99609375 139.567194 4.80078125 137.920709 4.80078125 136.239069 4.80078125 135.160944 6.08398438 135.160944 7.9765625 135.160944 9.89257812 136.22149 11.1054688 137.967584 11.1054688zM139.526178 7.43164062L136.215631 7.43164062C136.280084 6.41796875 136.948053 5.68554688 137.903131 5.68554688 138.864069 5.68554688 139.50274 6.41210938 139.526178 7.43164062z"/>
      <path d="M20.0539,8.92220385 C23.730241,8.92220385 26.0811091,12.3978386 26.0811091,12.3978386 C26.0811091,12.3978386 22.4949469,14.2993412 22.4949469,18.4289521 C22.4949469,23.3303314 27,24.7560759 27,24.7560759 C27,24.7560759 23.4441565,33 19.4514123,33 C17.2062711,33 17.0562322,31.7379407 14.0725577,31.7379407 C11.4814719,31.7379407 10.6076704,33 8.63384296,33 C4.86654574,33 0,24.9641245 0,18.4289521 C0,11.640603 4.92718321,8.92220385 8.0158072,8.92220385 C10.7281679,8.92220385 11.8577352,10.4818032 14.0422389,10.4818032 C15.8807981,10.4818032 17.327546,8.92220385 20.0539,8.92220385 Z M19.421871,2 C19.9637212,5.32724716 16.8750972,9.44232525 13.1839855,9.30847048 C12.6413579,5.0748353 16.6193314,2.22334625 19.421871,2 Z"/>
    </g>
  </g>
</svg>
